<?xml version="1.0" encoding="iso-8859-1"?>
<!-- Generator: Adobe Illustrator 18.1.1, SVG Export Plug-In . SVG Version: 6.00 Build 0)  -->
<svg version="1.1" class="svg" id="Capa_1" xmlns="http://www.w3.org/2000/svg" xmlns:xlink="http://www.w3.org/1999/xlink" x="0px" y="0px"
	 viewBox="0 0 401.839 401.839" style="enable-background:new 0 0 401.839 401.839;" xml:space="preserve">
<g>
	<g>
		<g>
			<path style="fill:#000;" d="M200.919,401.839c-110.787,0-200.916-90.13-200.916-200.916S90.133,0,200.919,0
				s200.916,90.13,200.916,200.922C401.836,311.703,311.706,401.839,200.919,401.839z M200.919,11.934
				c-104.205,0-188.983,84.777-188.983,188.989c0,104.205,84.777,188.983,188.983,188.983s188.983-84.777,188.983-188.983
				C389.902,96.711,305.125,11.934,200.919,11.934z"/>
		</g>
	</g>
	<g>
		<g>
			<path style="fill:#000;" d="M200.919,259.207c-32.144,0-58.296-26.153-58.296-58.302c0-32.144,26.153-58.296,58.296-58.296
				s58.296,26.153,58.296,58.296C259.216,233.054,233.063,259.207,200.919,259.207z M200.919,154.548
				c-25.562,0-46.363,20.795-46.363,46.363s20.801,46.369,46.363,46.369c25.568,0,46.363-20.795,46.363-46.369
				C247.282,175.348,226.487,154.548,200.919,154.548z"/>
		</g>
	</g>
	<g>
		<g>
			<path style="fill:#000;" d="M267.724,277.752l-8.437-8.437c16.994-16.994,26.35-39.626,26.35-63.72
				c0-24.1-9.356-46.733-26.356-63.726c-16.994-16.994-39.626-26.35-63.72-26.356c-24.1,0-46.733,9.356-63.726,26.35l-8.437-8.437
				c19.249-19.249,44.877-29.846,72.157-29.846l0,0c27.286,0,52.908,10.603,72.157,29.846
				c19.255,19.249,29.852,44.877,29.852,72.163C297.577,232.881,286.968,258.503,267.724,277.752z"/>
		</g>
	</g>
	<g>
		<g>
			<path style="fill:#000;" d="M304.289,314.323l-8.437-8.437c26.744-26.744,41.476-62.366,41.476-100.291
				s-14.732-73.548-41.476-100.291c-55.301-55.301-145.281-55.295-200.582,0l-8.437-8.437
				c28.999-28.999,67.611-44.972,108.722-44.972c0,0,0,0,0.006,0c41.118,0,79.723,15.973,108.728,44.972
				c29.005,28.999,44.972,67.617,44.972,108.728S333.288,285.318,304.289,314.323z"/>
		</g>
	</g>
</g>
<g>
</g>
<g>
</g>
<g>
</g>
<g>
</g>
<g>
</g>
<g>
</g>
<g>
</g>
<g>
</g>
<g>
</g>
<g>
</g>
<g>
</g>
<g>
</g>
<g>
</g>
<g>
</g>
<g>
</g>
</svg>
