<svg width="392" height="70" xmlns="http://www.w3.org/2000/svg">
 <defs>
  <style>@import url(https://fonts.googleapis.com/css?family=Montserrat:400,700);</style>
 </defs>
 <g>
  <title>background</title>
  <rect fill="none" id="canvas_background" height="72" width="394" y="-1" x="-1"/>
 </g>
 <g>
  <title>Layer 1</title>
  <path id="svg_1" fill=" rgb(0, 0, 0)" d="m28.183952,30.790604c0,0 0,-0.698997 0,-2.097c0,-1.387718 -0.781242,-2.878227 -2.343704,-4.471527c-1.552185,-1.603584 -3.469284,-2.40538 -5.751307,-2.40538c-2.292311,0 -4.271086,0.801796 -5.93634,2.40538c-1.654974,1.5933 -2.482473,3.772537 -2.482473,6.537682c0,2.765152 0.806927,4.995781 2.420797,6.691872c1.624136,1.706383 3.597775,2.55957 5.920916,2.55957c2.33342,0 4.276222,-0.837769 5.828407,-2.513313c1.562462,-1.685806 2.343704,-3.92157 2.343704,-6.707283m1.356873,12.273567c-3.063255,3.41275 -6.871769,5.119133 -11.425522,5.119133c-4.564049,0 -8.408527,-1.547035 -11.533466,-4.641144c-3.135204,-3.083809 -4.702814,-7.205826 -4.702814,-12.366081c0,-5.160255 1.608718,-9.390221 4.826164,-12.689888c3.217451,-3.29969 6.897461,-4.949532 11.040051,-4.949532c4.152866,0 7.586184,1.701241 10.29994,5.103714l0,-4.594879l9.714012,0l0,30.375557c0,3.10437 -0.539665,5.86953 -1.619007,8.295456c-1.079327,2.415672 -2.523586,4.31221 -4.332752,5.689636c-3.587509,2.847382 -7.817471,4.271088 -12.689894,4.271088c-2.590403,0 -5.237345,-0.416321 -7.940821,-1.248932c-2.693201,-0.842941 -5.057449,-2.045609 -7.09277,-3.608078l3.762257,-7.30864c3.196878,2.415665 6.573652,3.623482 10.130323,3.623482c3.566946,0 6.383493,-0.884018 8.449652,-2.652077c2.076439,-1.768059 3.114647,-4.574333 3.114647,-8.418816zm25.742867,-11.533463c0,0 0,0.714417 0,2.143257c0,1.418556 0.812057,3.027267 2.436188,4.826164c1.613861,1.788612 3.68515,2.682915 6.213905,2.682915c2.528717,0 4.600014,-0.894302 6.213882,-2.682915c1.62413,-1.798897 2.436195,-4.122025 2.436195,-6.969421c0,-2.847389 -0.812065,-5.175667 -2.436195,-6.984833c-1.613869,-1.819458 -3.685165,-2.729179 -6.213882,-2.729179c-2.528755,0 -4.600044,0.909721 -6.213905,2.729179c-1.62413,1.809166 -2.436188,4.137444 -2.436188,6.984833m27.075874,0c0,0 0,1.264374 0,3.793098c0,2.528725 -1.747513,5.520027 -5.242493,8.9739c-3.505272,3.453865 -7.899712,5.180801 -13.183289,5.180801c-5.293892,0 -9.688332,-1.726936 -13.183308,-5.180801c-3.494995,-3.453873 -5.242481,-7.709541 -5.242481,-12.766998c0,-5.047165 1.747486,-9.307976 5.242481,-12.782402c3.494976,-3.474426 7.889416,-5.211647 13.183308,-5.211647c5.283577,0 9.678017,1.737221 13.183289,5.211647c3.49498,3.474426 5.242493,7.735237 5.242493,12.782402zm15.510849,0c0,0 0,0.714417 0,2.143257c0,1.418556 0.81208,3.027267 2.436226,4.826164c1.613853,1.788612 3.685143,2.682915 6.213882,2.682915c2.528732,0 4.600021,-0.894302 6.213875,-2.682915c1.624161,-1.798897 2.436211,-4.122025 2.436211,-6.969421c0,-2.847389 -0.81205,-5.175667 -2.436211,-6.984833c-1.613853,-1.819458 -3.685143,-2.729179 -6.213875,-2.729179c-2.52874,0 -4.600029,0.909721 -6.213882,2.729179c-1.624146,1.809166 -2.436226,4.137444 -2.436226,6.984833m27.07589,0c0,0 0,1.264374 0,3.793098c0,2.528725 -1.747482,5.520027 -5.242477,8.9739c-3.505264,3.453865 -7.899712,5.180801 -13.183304,5.180801c-5.293869,0 -9.688309,-1.726936 -13.183311,-5.180801c-3.494987,-3.453873 -5.242477,-7.709541 -5.242477,-12.766998c0,-5.047165 1.74749,-9.307976 5.242477,-12.782402c3.495003,-3.474426 7.889442,-5.211647 13.183311,-5.211647c5.283592,0 9.67804,1.737221 13.183304,5.211647c3.494995,3.474426 5.242477,7.735237 5.242477,12.782402zm21.693909,17.9478c0,0 -1.027954,0 -3.083801,0c-2.066162,0 -4.718246,-1.752647 -7.956238,-5.257904c-3.238022,-3.494987 -4.85701,-7.832878 -4.85701,-13.013695c0,-5.180801 1.577881,-9.421051 4.733658,-12.720718c3.145477,-3.29969 6.8358,-4.949532 11.070892,-4.949532c4.235092,0 7.68898,1.485367 10.361603,4.456116l0,-17.084328l9.71402,0l0,48.045822l-9.71402,0l0,-4.594894c-2.724045,3.412743 -6.147064,5.119133 -10.269104,5.119133m-6.121353,-17.886116c0,0 0,0.70414 0,2.112411c0,1.397995 0.842911,2.996429 2.528717,4.795326c1.685837,1.788612 3.649185,2.682915 5.89006,2.682915c2.251205,0 4.163177,-0.894302 5.735916,-2.682915c1.572739,-1.798897 2.359116,-4.111755 2.359116,-6.938576c0,-2.82682 -0.786377,-5.180801 -2.359116,-7.061928c-1.572739,-1.87085 -3.505264,-2.806274 -5.797577,-2.806274c-2.282013,0 -4.245377,0.950844 -5.89006,2.852524c-1.64473,1.891411 -2.467056,4.240242 -2.467056,7.046516zm55.668213,-19.165894l0,36.527771l-10.099503,0l0,-36.527771l-12.813248,0l0,-8.742615l35.741409,0l0,8.742615l-12.828659,0zm29.184769,36.527771l-9.713989,0l0,-34.847099l9.713989,0l0,34.847099m-8.896805,-39.272369c0,0 -0.277496,-0.277542 -0.832611,-0.832626c-0.544815,-0.544807 -0.817184,-1.619003 -0.817184,-3.222588c0,-1.5933 0.549911,-2.939911 1.649796,-4.039803c1.099899,-1.099892 2.446518,-1.649834 4.03981,-1.649834c1.603577,0 2.955338,0.549942 4.055222,1.649834c1.099899,1.099892 1.649841,2.446503 1.649841,4.039803c0,1.603584 -0.549942,2.955322 -1.649841,4.055214c-1.099884,1.099892 -2.451645,1.649834 -4.055222,1.649834c-1.593292,0 -2.939911,-0.549942 -4.03981,-1.649834zm50.647156,20.491936l0,18.780434l-9.775696,0l0,-19.042557c0,-2.765144 -0.421478,-4.795334 -1.264374,-6.09053c-0.842896,-1.295204 -2.204895,-1.94281 -4.08606,-1.94281c-1.870819,0 -3.530945,0.704147 -4.980347,2.112419c-1.449387,1.397995 -2.174072,3.459007 -2.174072,6.183044l0,18.780434l-9.71402,0l0,-34.847099l9.71402,0l0,3.9627c2.682922,-3.022141 5.751282,-4.533211 9.20517,-4.533211c2.199799,0 4.19397,0.647606 5.982605,1.94281c1.788605,1.295197 3.14035,2.86795 4.055206,4.718231c1.336334,-2.117546 3.135223,-3.757126 5.396667,-4.918686c2.271759,-1.16156 4.548645,-1.742355 6.830658,-1.742355c4.101471,0 7.406281,1.218117 9.914459,3.65432c2.508179,2.436211 3.762238,5.967186 3.762238,10.592903l0,21.170387l-9.791077,0l0,-19.042557c0,-5.355553 -1.963409,-8.03334 -5.890106,-8.03334c-1.94281,0 -3.623474,0.704147 -5.042023,2.112419c-1.428864,1.397995 -2.14325,3.459007 -2.14325,6.183044zm62.394958,13.722961c-3.926727,3.721138 -8.531891,5.581711 -13.815521,5.581711c-5.293884,0 -9.667694,-1.629288 -13.121613,-4.88784c-3.453857,-3.268845 -5.180817,-7.642723 -5.180817,-13.121635c0,-5.478897 1.762939,-9.837357 5.288757,-13.075356c3.515533,-3.238014 7.668427,-4.857018 12.458588,-4.857018c4.790222,0 8.86084,1.444267 12.211914,4.332764c3.34079,2.888496 5.0112,6.861481 5.0112,11.918938l0,5.180809l-25.379761,0c0.298096,1.90168 1.29007,3.453865 2.97583,4.656555c1.685852,1.212975 3.587524,1.81945 5.705109,1.81945c3.402466,0 6.20874,-1.146149 8.418762,-3.438454l5.427551,5.890076m-6.984863,-15.866211c-0.215851,-2.066154 -0.991913,-3.659447 -2.328278,-4.779915c-1.346619,-1.13073 -2.975861,-1.696091 -4.887848,-1.696091c-1.922241,0 -3.685181,0.58593 -5.288727,1.757767c-1.593292,1.161568 -2.518433,2.734314 -2.775421,4.718239l15.280273,0zm43.616974,10.068649c0,0 0,0.858337 0,2.574982c0,1.716652 -1.259247,3.613205 -3.777679,5.689636c-2.528748,2.076439 -5.735901,3.114655 -9.62149,3.114655c-2.590454,0 -5.288788,-0.467705 -8.095032,-1.403137c-2.806274,-0.92514 -5.334991,-2.292297 -7.586151,-4.101471l4.286469,-6.090523c3.618347,2.806259 7.478241,4.209396 11.579681,4.209396c1.25412,0 2.251221,-0.251839 2.991333,-0.755531c0.729828,-0.493408 1.094757,-1.151291 1.094757,-1.97364c0,-0.81208 -0.50882,-1.567612 -1.526459,-2.266602c-1.007385,-0.688728 -2.472229,-1.336327 -4.39447,-1.94281c-1.922241,-0.596199 -3.392181,-1.110168 -4.409851,-1.541901c-1.017639,-0.431732 -2.174103,-1.058784 -3.46933,-1.881126c-2.63147,-1.644699 -3.947266,-4.075775 -3.947266,-7.293213c0,-3.217453 1.295227,-5.838699 3.88562,-7.863731c2.590393,-2.025032 5.93634,-3.03756 10.037842,-3.03756c4.10144,0 8.202942,1.377434 12.304382,4.132317l-3.623444,6.476006c-3.022186,-2.066154 -6.033997,-3.099236 -9.035614,-3.099236c-3.001556,0 -4.50238,0.817215 -4.50238,2.451637c0,0.914856 0.477997,1.629288 1.43399,2.14325c0.94574,0.513962 2.518463,1.120453 4.718231,1.81945c2.199799,0.688721 3.767395,1.212967 4.70285,1.572746c0.92514,0.370056 2.035278,0.945694 3.330505,1.726929c2.415649,1.469948 3.623505,3.916443 3.623505,7.339478zm8.684082,9.714012c0,0 -0.272369,-0.272408 -0.817169,-0.817207c-0.555084,-0.555084 -0.832611,-1.629288 -0.832611,-3.222588c0,-1.5933 0.549896,-2.945045 1.64978,-4.055206c1.099945,-1.099892 2.45166,-1.649849 4.055267,-1.649849c1.593292,0 2.93988,0.549957 4.039764,1.649849c1.099915,1.110161 1.649872,2.461906 1.649872,4.055206c0,1.5933 -0.549957,2.939911 -1.649872,4.039795c-1.099884,1.110176 -2.446472,1.66526 -4.039764,1.66526c-1.603607,0 -2.955322,-0.555084 -4.055267,-1.66526z"/>
 </g>
</svg>